<svg xmlns="http://www.w3.org/2000/svg" xmlns:xlink="http://www.w3.org/1999/xlink" width="1920" height="1080" viewBox="0 0 1920 1080"><defs><linearGradient id="a" x1="-65.60453" y1="344.93793" x2="1985.60453" y2="735.06207" gradientUnits="userSpaceOnUse"><stop offset="0" stop-color="#005ac8"/><stop offset="0.5" stop-color="#95098a"/><stop offset="1" stop-color="#eb0000"/></linearGradient><clipPath id="b"><rect width="1920" height="1080" fill="none"/></clipPath></defs><g style="isolation:isolate"><rect width="1920" height="1080" fill="url(#a)"/><g opacity="0.5" style="mix-blend-mode:overlay"><g clip-path="url(#b)"><path d="M1705.78512-614.83031H1920V-395.7699ZM0,1098.9952v206.17449H241.98347Z" fill="#3a3a3a" stroke="#fff" stroke-miterlimit="10"/><path d="M753.719-161.98275,571.23967-416.01919l238.01653,58.907Zm257.85124-257.71812,347.10744,77.31543L1178.18182-614.83031Zm-440.33058,3.68168,79.33884-198.81112L291.57025-506.22053ZM483.96694-51.53213,154.71074,134.39309l198.34711,117.814ZM702.14876,27.62415,483.96694-51.53213,666.44628,230.117ZM353.05785,252.20709l-204.29752,176.721L240,552.26461ZM190.41322,756.59826,240,552.26461,51.57025,649.82933Zm731.90083,445.48418,71.405,103.08725,162.64463-119.65484Zm630.7438-86.51965,249.91736,115.97315-115.04133-171.19846Zm-190.41322,104.92809,190.41322-104.92809-283.63636-106.76894Zm-551.405-620.36433,198.34711,69.95206L872.72727,381.06615Z" fill="#818181" stroke="#fff" stroke-miterlimit="10"/><path d="M571.23967-416.01919l79.33884-198.81112L809.2562-357.11219ZM154.71074,134.39309,483.96694-51.53213,253.8843-138.05178ZM803.30579,95.73537l247.93388,127.01822-85.28926-294.535Zm-101.157-68.11122,101.157,68.11122L965.95041-71.78141ZM240,552.26461,190.41322,756.59826l164.6281-125.17737Zm115.04132,79.15628,150.7438,127.01822L658.5124,662.71523Zm128.92562,393.94056L922.31405,918.59251,755.70248,826.55033Zm95.20661,279.80824H993.719l-71.405-103.08725Zm343.1405-103.08725,234.04959-16.56759,1.98347-66.27037Zm71.405,103.08725h216.19835l-53.55372-119.65484Zm517.686,0-148.76033-84.67881-152.72727,84.67881Zm41.65289-189.6069-190.41322,104.92809,148.76033,84.67881ZM1332.89256,767.64333l-63.47107,241.15052,353.05785-75.47459ZM872.72727,381.06615l136.85951,289.01246,41.65289-447.325Zm485.95042-723.45159L1390.41322-46.0096l170.57852-46.02109Z" fill="#8f8f8f" stroke="#fff" stroke-miterlimit="10"/><path d="M936.19835-614.83031l75.3719,195.12944-202.314,62.58868ZM666.44628,230.117l206.281,150.94919L803.30579,95.73537ZM922.31405,918.59251l236.03306,200.652,111.07438-110.45063Zm87.27273-248.5139-87.27273,248.5139,228.09917-213.53787Zm41.65289-447.325,154.71074-294.535h-240ZM1390.41322-46.0096,1205.95041-71.78141l105.124,211.697ZM1009.58678,670.07861l354.39789-284.24108-312.745-163.08394Zm435.31743-66.00353-294.491,100.97956,182.47934,62.58869Z" fill="#bababa" stroke="#fff" stroke-miterlimit="10"/><path d="M1269.42149,1008.79385,922.31405,918.59251l228.09917-213.53787ZM1150.41322,705.05464l294.491-100.97956-80.91954-218.23755Zm160.66116-565.139L1499.50413,42.3509,1390.41322-46.0096Z" fill="#c8c8c8" stroke="#fff" stroke-miterlimit="10"/><path d="M650.57851-614.83031H936.19835L809.2562-357.11219Zm360.99174,195.12944-202.314,62.58868,95.20661,97.56472ZM753.719-161.98275l212.2314,90.20134-61.4876-187.76606Zm150.7438-97.56472,176.52893,60.74784-69.42149-220.90124ZM872.72727,381.06615,666.44628,230.117,811.23967,600.12655Zm-682.314,375.53211,315.3719,1.84085L355.04132,631.42089Zm315.3719,1.84085,249.91736,68.11122L658.5124,662.71523Zm416.52893,160.1534L483.96694,1025.36145l438.34711,176.721Zm440.33058,301.89837-204.29752-101.2464-1.98347,66.27037ZM1080.99174-198.79963,1205.95041-71.78141l152.72728-270.604Zm-29.75207,421.55322,259.83471-82.838-105.124-211.697Zm-41.65289,447.325,140.82644,34.976,213.57145-319.21711Zm435.31743-66.00353,264.84786-151.216-345.7674-67.02152ZM1311.07438,139.91562l52.91029,245.92191,312.04839-128.10791ZM1560.99174-92.03069,1390.41322-46.0096l109.09091,88.3605Z" fill="#acacac" stroke="#fff" stroke-miterlimit="10"/><path d="M809.2562-357.11219l95.20661,97.56472L753.719-161.98275Zm202.314-62.58868,166.61157-195.12944H936.19835ZM702.14876,27.62415,965.95041-71.78141,753.719-161.98275Zm656.52893-370.00959-347.10744-77.31543,69.42149,220.90124Zm-277.686,143.58581L904.46281-259.54747l61.4876,187.76606ZM666.44628,230.117,803.30579,95.73537l-101.157-68.11122ZM803.30579,95.73537l69.42148,285.33078,178.5124-158.31256ZM922.31405,918.59251v283.48993l236.03306-82.838Zm287.60331,386.57718,152.72727-84.67881-206.281-34.976Zm152.72727-84.67881-93.22314-211.697-111.07438,110.45063Zm-93.22314-211.697,63.47107-241.15052-182.47934-62.58869ZM965.95041-71.78141h240L1080.99174-198.79963Zm240,0L1390.41322-46.0096l-31.73553-296.37584Zm-154.71074,294.535,312.745,163.08394-52.91029-245.92191ZM1499.50413,42.3509l-188.42975,97.56472,364.95868,117.814Z" fill="#9d9d9d" stroke="#fff" stroke-miterlimit="10"/><path d="M1705.78512-614.83031,1920-395.7699l-180.49587,86.51965Zm-1126.61157,1920-95.20661-279.80824L241.98347,1305.16969ZM228.09917,918.59251,0,1098.9952l241.98347,206.17449Zm1440-1145.00479,214.21488,36.81687L1739.50413-309.25025Zm214.21488,36.81687L1920-134.3701V-395.7699Z" fill="#404040" stroke="#fff" stroke-miterlimit="10"/><path d="M571.23967-416.01919,279.66942-344.22628l11.90083-161.99425ZM0-57.05466,154.71074,134.39309,253.8843-138.05178ZM154.71074,134.39309,0,285.34227l353.05785-33.13518Zm198.34711,117.814L666.44628,230.117,483.96694-51.53213ZM483.96694-51.53213,702.14876,27.62415,753.719-161.98275ZM658.5124,662.71523l152.72727-62.58868L666.44628,230.117ZM353.05785,252.20709,240,552.26461l115.04132,79.15628ZM658.5124,662.71523l97.19008,163.8351,55.53719-226.42378Zm351.07438,7.36338L755.70248,826.55033l166.61157,92.04218ZM483.96694,1025.36145,755.70248,826.55033,505.78512,758.43911ZM190.41322,756.59826l37.68595,161.99425,277.686-160.1534Zm1453.8843,548.57143,158.67769-73.63375-249.91736-115.97315Zm0,0h164.6281l-5.95041-73.63375Zm-91.23967-189.6069,69.42149-182.24353-353.05785,75.47459ZM1444.90421,604.07508,1332.89256,767.64333l289.58678,165.67593Zm243.02967,456.2624,136.85951-143.58581-202.314,16.56759ZM1499.50413,42.3509,1763.30579-95.71238l-202.314,3.68169Zm176.52893,215.37872L1920,419.72386V106.78043ZM1920,960.93192l-95.20661-44.18025-21.81818,314.78427Z" fill="#737373" stroke="#fff" stroke-miterlimit="10"/><path d="M1705.78512-614.83031l33.719,305.58006L1541.157-371.83894ZM291.57025-506.22053,0-614.83031v156.47172Zm-63.47108,1424.813,13.8843,386.57718,241.98347-279.80824Zm0,0L0,819.187V1098.9952ZM0,480.47171l148.76033-51.54363L0,285.34227ZM0,819.187,51.57025,649.82933,0,480.47171ZM1560.99174-92.03069l202.314-3.68169-95.20662-130.6999ZM1920-395.7699l-180.49587,86.51965,142.80992,119.65484ZM1763.30579-95.71238l119.00826-93.883-214.21488-36.81687Zm-87.27273,353.442,33.719,195.12943L1920,419.72386Zm132.89256,447.325L1920,745.5532V419.72386Zm-5.95041,526.4813L1920,1305.16969V960.93192Z" fill="#3a3a3a" stroke="#fff" stroke-miterlimit="10"/><path d="M291.57025-506.22053,279.66942-344.22628,0-458.35859Zm279.66942,90.20134L279.66942-344.22628,487.93388-222.73059ZM1541.157-371.83894l164.6281-242.99137h-273.719ZM0-57.05466,140.82645-250.34325,0-230.094ZM148.76033,428.92808,0,480.47171,51.57025,649.82933ZM1358.67769-342.38544l202.314,250.35475L1541.157-371.83894ZM1808.92562,705.05464,1622.47934,933.31926l202.314-16.56759ZM1541.157-371.83894l126.94215,145.42666,71.405-82.838ZM1763.30579-95.71238,1920-134.3701l-37.686-55.22531ZM1920-134.3701,1763.30579-95.71238,1920,106.78043ZM1824.79339,916.75167,1920,960.93192V745.5532ZM353.05785,252.20709l1.98347,379.2138,179.70248-248.652Z" fill="#4e4e4e" stroke="#fff" stroke-miterlimit="10"/><path d="M140.82645-250.34325l138.843-93.883L253.8843-138.05178Zm347.10743,27.61266L279.66942-344.22628,253.8843-138.05178Zm0,0L753.719-161.98275,571.23967-416.01919Zm870.74381-119.65485,182.47933-29.4535-109.0909-242.99137ZM339.17355-614.83031H0L291.57025-506.22053ZM0-458.35859V-230.094l140.82645-20.24928ZM0-57.05466V285.34227L154.71074,134.39309ZM483.96694,1025.36145l21.81818-266.92234-277.686,160.1534ZM0,819.187l228.09917,99.40556L190.41322,756.59826ZM1676.03306,257.72962,1363.98467,385.83753l345.7674,67.02152Zm-53.55372,675.58964,186.44628-228.26462L1444.90421,604.07508ZM1560.99174-92.03069l107.10743-134.38159L1541.157-371.83894Zm115.04132,349.76031L1920,106.78043,1763.30579-95.71238Zm33.719,195.12943,99.17355,252.19559L1920,419.72386Zm99.17355,252.19559,15.86777,211.697L1920,745.5532ZM1920,1305.16969l-117.02479-73.63375,5.95041,73.63375ZM534.7438,382.76893,666.44628,230.117,353.05785,252.20709Zm0,0-179.70248,248.652L658.5124,662.71523Z" fill="#575757" stroke="#fff" stroke-miterlimit="10"/><path d="M0-458.35859,279.66942-344.22628l-138.843,93.883ZM1358.67769-342.38544l73.38843-272.44487h-253.8843ZM650.57851-614.83031h-311.405l-47.6033,108.60978ZM140.82645-250.34325,0-57.05466l253.8843-80.99712Zm347.10743,27.61266L483.96694-51.53213,753.719-161.98275ZM253.8843-138.05178,483.96694-51.53213l3.96694-171.19846Zm-105.124,566.97986,204.29752-176.721L0,285.34227Zm0,0L51.57025,649.82933,240,552.26461ZM755.70248,826.55033l253.8843-156.47172L811.23967,600.12655ZM483.96694,1025.36145l95.20661,279.80824,343.1405-103.08725ZM0,819.187l190.41322-62.58869L51.57025,649.82933Zm1511.405,485.98274h132.89256l-91.23967-189.6069Zm41.65289-189.6069,134.876-55.22531-65.45454-127.01822Zm156.69422-662.70374-264.84786,151.216,364.02141,100.97956Zm115.04132,463.89262-136.85951,143.58581,115.04133,171.19846Zm-61.4876-1012.464L1499.50413,42.3509l176.52893,215.37872ZM658.5124,662.71523,666.44628,230.117,534.7438,382.76893Z" fill="#656565" stroke="#fff" stroke-miterlimit="10"/></g></g><g opacity="0.5" style="mix-blend-mode:multiply"><g clip-path="url(#b)"><path d="M1705.78512-614.83031H1920V-395.7699ZM0,1098.9952v206.17449H241.98347Z" fill="#3a3a3a" stroke="#fff" stroke-miterlimit="10"/><path d="M753.719-161.98275,571.23967-416.01919l238.01653,58.907Zm257.85124-257.71812,347.10744,77.31543L1178.18182-614.83031Zm-440.33058,3.68168,79.33884-198.81112L291.57025-506.22053ZM483.96694-51.53213,154.71074,134.39309l198.34711,117.814ZM702.14876,27.62415,483.96694-51.53213,666.44628,230.117ZM353.05785,252.20709l-204.29752,176.721L240,552.26461ZM190.41322,756.59826,240,552.26461,51.57025,649.82933Zm731.90083,445.48418,71.405,103.08725,162.64463-119.65484Zm630.7438-86.51965,249.91736,115.97315-115.04133-171.19846Zm-190.41322,104.92809,190.41322-104.92809-283.63636-106.76894Zm-551.405-620.36433,198.34711,69.95206L872.72727,381.06615Z" fill="#818181" stroke="#fff" stroke-miterlimit="10"/><path d="M571.23967-416.01919l79.33884-198.81112L809.2562-357.11219ZM154.71074,134.39309,483.96694-51.53213,253.8843-138.05178ZM803.30579,95.73537l247.93388,127.01822-85.28926-294.535Zm-101.157-68.11122,101.157,68.11122L965.95041-71.78141ZM240,552.26461,190.41322,756.59826l164.6281-125.17737Zm115.04132,79.15628,150.7438,127.01822L658.5124,662.71523Zm128.92562,393.94056L922.31405,918.59251,755.70248,826.55033Zm95.20661,279.80824H993.719l-71.405-103.08725Zm343.1405-103.08725,234.04959-16.56759,1.98347-66.27037Zm71.405,103.08725h216.19835l-53.55372-119.65484Zm517.686,0-148.76033-84.67881-152.72727,84.67881Zm41.65289-189.6069-190.41322,104.92809,148.76033,84.67881ZM1332.89256,767.64333l-63.47107,241.15052,353.05785-75.47459ZM872.72727,381.06615l136.85951,289.01246,41.65289-447.325Zm485.95042-723.45159L1390.41322-46.0096l170.57852-46.02109Z" fill="#8f8f8f" stroke="#fff" stroke-miterlimit="10"/><path d="M936.19835-614.83031l75.3719,195.12944-202.314,62.58868ZM666.44628,230.117l206.281,150.94919L803.30579,95.73537ZM922.31405,918.59251l236.03306,200.652,111.07438-110.45063Zm87.27273-248.5139-87.27273,248.5139,228.09917-213.53787Zm41.65289-447.325,154.71074-294.535h-240ZM1390.41322-46.0096,1205.95041-71.78141l105.124,211.697ZM1009.58678,670.07861l354.39789-284.24108-312.745-163.08394Zm435.31743-66.00353-294.491,100.97956,182.47934,62.58869Z" fill="#bababa" stroke="#fff" stroke-miterlimit="10"/><path d="M1269.42149,1008.79385,922.31405,918.59251l228.09917-213.53787ZM1150.41322,705.05464l294.491-100.97956-80.91954-218.23755Zm160.66116-565.139L1499.50413,42.3509,1390.41322-46.0096Z" fill="#c8c8c8" stroke="#fff" stroke-miterlimit="10"/><path d="M650.57851-614.83031H936.19835L809.2562-357.11219Zm360.99174,195.12944-202.314,62.58868,95.20661,97.56472ZM753.719-161.98275l212.2314,90.20134-61.4876-187.76606Zm150.7438-97.56472,176.52893,60.74784-69.42149-220.90124ZM872.72727,381.06615,666.44628,230.117,811.23967,600.12655Zm-682.314,375.53211,315.3719,1.84085L355.04132,631.42089Zm315.3719,1.84085,249.91736,68.11122L658.5124,662.71523Zm416.52893,160.1534L483.96694,1025.36145l438.34711,176.721Zm440.33058,301.89837-204.29752-101.2464-1.98347,66.27037ZM1080.99174-198.79963,1205.95041-71.78141l152.72728-270.604Zm-29.75207,421.55322,259.83471-82.838-105.124-211.697Zm-41.65289,447.325,140.82644,34.976,213.57145-319.21711Zm435.31743-66.00353,264.84786-151.216-345.7674-67.02152ZM1311.07438,139.91562l52.91029,245.92191,312.04839-128.10791ZM1560.99174-92.03069,1390.41322-46.0096l109.09091,88.3605Z" fill="#acacac" stroke="#fff" stroke-miterlimit="10"/><path d="M809.2562-357.11219l95.20661,97.56472L753.719-161.98275Zm202.314-62.58868,166.61157-195.12944H936.19835ZM702.14876,27.62415,965.95041-71.78141,753.719-161.98275Zm656.52893-370.00959-347.10744-77.31543,69.42149,220.90124Zm-277.686,143.58581L904.46281-259.54747l61.4876,187.76606ZM666.44628,230.117,803.30579,95.73537l-101.157-68.11122ZM803.30579,95.73537l69.42148,285.33078,178.5124-158.31256ZM922.31405,918.59251v283.48993l236.03306-82.838Zm287.60331,386.57718,152.72727-84.67881-206.281-34.976Zm152.72727-84.67881-93.22314-211.697-111.07438,110.45063Zm-93.22314-211.697,63.47107-241.15052-182.47934-62.58869ZM965.95041-71.78141h240L1080.99174-198.79963Zm240,0L1390.41322-46.0096l-31.73553-296.37584Zm-154.71074,294.535,312.745,163.08394-52.91029-245.92191ZM1499.50413,42.3509l-188.42975,97.56472,364.95868,117.814Z" fill="#9d9d9d" stroke="#fff" stroke-miterlimit="10"/><path d="M1705.78512-614.83031,1920-395.7699l-180.49587,86.51965Zm-1126.61157,1920-95.20661-279.80824L241.98347,1305.16969ZM228.09917,918.59251,0,1098.9952l241.98347,206.17449Zm1440-1145.00479,214.21488,36.81687L1739.50413-309.25025Zm214.21488,36.81687L1920-134.3701V-395.7699Z" fill="#404040" stroke="#fff" stroke-miterlimit="10"/><path d="M571.23967-416.01919,279.66942-344.22628l11.90083-161.99425ZM0-57.05466,154.71074,134.39309,253.8843-138.05178ZM154.71074,134.39309,0,285.34227l353.05785-33.13518Zm198.34711,117.814L666.44628,230.117,483.96694-51.53213ZM483.96694-51.53213,702.14876,27.62415,753.719-161.98275ZM658.5124,662.71523l152.72727-62.58868L666.44628,230.117ZM353.05785,252.20709,240,552.26461l115.04132,79.15628ZM658.5124,662.71523l97.19008,163.8351,55.53719-226.42378Zm351.07438,7.36338L755.70248,826.55033l166.61157,92.04218ZM483.96694,1025.36145,755.70248,826.55033,505.78512,758.43911ZM190.41322,756.59826l37.68595,161.99425,277.686-160.1534Zm1453.8843,548.57143,158.67769-73.63375-249.91736-115.97315Zm0,0h164.6281l-5.95041-73.63375Zm-91.23967-189.6069,69.42149-182.24353-353.05785,75.47459ZM1444.90421,604.07508,1332.89256,767.64333l289.58678,165.67593Zm243.02967,456.2624,136.85951-143.58581-202.314,16.56759ZM1499.50413,42.3509,1763.30579-95.71238l-202.314,3.68169Zm176.52893,215.37872L1920,419.72386V106.78043ZM1920,960.93192l-95.20661-44.18025-21.81818,314.78427Z" fill="#737373" stroke="#fff" stroke-miterlimit="10"/><path d="M1705.78512-614.83031l33.719,305.58006L1541.157-371.83894ZM291.57025-506.22053,0-614.83031v156.47172Zm-63.47108,1424.813,13.8843,386.57718,241.98347-279.80824Zm0,0L0,819.187V1098.9952ZM0,480.47171l148.76033-51.54363L0,285.34227ZM0,819.187,51.57025,649.82933,0,480.47171ZM1560.99174-92.03069l202.314-3.68169-95.20662-130.6999ZM1920-395.7699l-180.49587,86.51965,142.80992,119.65484ZM1763.30579-95.71238l119.00826-93.883-214.21488-36.81687Zm-87.27273,353.442,33.719,195.12943L1920,419.72386Zm132.89256,447.325L1920,745.5532V419.72386Zm-5.95041,526.4813L1920,1305.16969V960.93192Z" fill="#3a3a3a" stroke="#fff" stroke-miterlimit="10"/><path d="M291.57025-506.22053,279.66942-344.22628,0-458.35859Zm279.66942,90.20134L279.66942-344.22628,487.93388-222.73059ZM1541.157-371.83894l164.6281-242.99137h-273.719ZM0-57.05466,140.82645-250.34325,0-230.094ZM148.76033,428.92808,0,480.47171,51.57025,649.82933ZM1358.67769-342.38544l202.314,250.35475L1541.157-371.83894ZM1808.92562,705.05464,1622.47934,933.31926l202.314-16.56759ZM1541.157-371.83894l126.94215,145.42666,71.405-82.838ZM1763.30579-95.71238,1920-134.3701l-37.686-55.22531ZM1920-134.3701,1763.30579-95.71238,1920,106.78043ZM1824.79339,916.75167,1920,960.93192V745.5532ZM353.05785,252.20709l1.98347,379.2138,179.70248-248.652Z" fill="#4e4e4e" stroke="#fff" stroke-miterlimit="10"/><path d="M140.82645-250.34325l138.843-93.883L253.8843-138.05178Zm347.10743,27.61266L279.66942-344.22628,253.8843-138.05178Zm0,0L753.719-161.98275,571.23967-416.01919Zm870.74381-119.65485,182.47933-29.4535-109.0909-242.99137ZM339.17355-614.83031H0L291.57025-506.22053ZM0-458.35859V-230.094l140.82645-20.24928ZM0-57.05466V285.34227L154.71074,134.39309ZM483.96694,1025.36145l21.81818-266.92234-277.686,160.1534ZM0,819.187l228.09917,99.40556L190.41322,756.59826ZM1676.03306,257.72962,1363.98467,385.83753l345.7674,67.02152Zm-53.55372,675.58964,186.44628-228.26462L1444.90421,604.07508ZM1560.99174-92.03069l107.10743-134.38159L1541.157-371.83894Zm115.04132,349.76031L1920,106.78043,1763.30579-95.71238Zm33.719,195.12943,99.17355,252.19559L1920,419.72386Zm99.17355,252.19559,15.86777,211.697L1920,745.5532ZM1920,1305.16969l-117.02479-73.63375,5.95041,73.63375ZM534.7438,382.76893,666.44628,230.117,353.05785,252.20709Zm0,0-179.70248,248.652L658.5124,662.71523Z" fill="#575757" stroke="#fff" stroke-miterlimit="10"/><path d="M0-458.35859,279.66942-344.22628l-138.843,93.883ZM1358.67769-342.38544l73.38843-272.44487h-253.8843ZM650.57851-614.83031h-311.405l-47.6033,108.60978ZM140.82645-250.34325,0-57.05466l253.8843-80.99712Zm347.10743,27.61266L483.96694-51.53213,753.719-161.98275ZM253.8843-138.05178,483.96694-51.53213l3.96694-171.19846Zm-105.124,566.97986,204.29752-176.721L0,285.34227Zm0,0L51.57025,649.82933,240,552.26461ZM755.70248,826.55033l253.8843-156.47172L811.23967,600.12655ZM483.96694,1025.36145l95.20661,279.80824,343.1405-103.08725ZM0,819.187l190.41322-62.58869L51.57025,649.82933Zm1511.405,485.98274h132.89256l-91.23967-189.6069Zm41.65289-189.6069,134.876-55.22531-65.45454-127.01822Zm156.69422-662.70374-264.84786,151.216,364.02141,100.97956Zm115.04132,463.89262-136.85951,143.58581,115.04133,171.19846Zm-61.4876-1012.464L1499.50413,42.3509l176.52893,215.37872ZM658.5124,662.71523,666.44628,230.117,534.7438,382.76893Z" fill="#656565" stroke="#fff" stroke-miterlimit="10"/></g></g><rect width="1920" height="1080" opacity="0.6" fill="url(#a)" style="mix-blend-mode:overlay"/></g></svg>